<?xml version="1.0" encoding="UTF-8"?>
<!DOCTYPE svg
PUBLIC "-//W3C//DTD SVG 1.1//EN"
       "http://www.w3.org/Graphics/SVG/1.1/DTD/svg11.dtd">
<svg xmlns:xlink="http://www.w3.org/1999/xlink" xmlns:ibooks="http://www.apple.com/2011/iBooks" width="0" height="0" xmlns="http://www.w3.org/2000/svg"><defs id="SVG_DEFS"><marker id="SVG_DEF_1" ibooks:markerId="simple arrow" markerUnits="strokeWidth" refX="3.000" refY="0.000" viewBox="0.000 0.000 6.000 6.000" preserveAspectRatio="none" markerWidth="6.000" markerHeight="6.000"><path d="M 0 0 L 3 6 L 6 0 Z"/></marker><marker id="SVG_DEF_2" ibooks:markerId="filled circle" markerUnits="strokeWidth" refX="3.000" refY="0.500" viewBox="0.500 0.500 5.000 5.000" preserveAspectRatio="none" markerWidth="5.000" markerHeight="5.000"><path d="M 4.767767 1.232233 C 5.744078 2.208544 5.744078 3.791456 4.767767 4.767767 C 3.791456 5.744078 2.208544 5.744078 1.232233 4.767767 C 0.255922 3.791456 0.255922 2.208544 1.232233 1.232233 C 2.208544 0.255922 3.791456 0.255922 4.767767 1.232233"/></marker><marker id="SVG_DEF_3" ibooks:markerId="filled circle" markerUnits="strokeWidth" refX="3.000" refY="0.500" viewBox="0.500 0.500 5.000 5.000" preserveAspectRatio="none" markerWidth="5.000" markerHeight="5.000"><path d="M 4.767767 1.232233 C 5.744078 2.208544 5.744078 3.791456 4.767767 4.767767 C 3.791456 5.744078 2.208544 5.744078 1.232233 4.767767 C 0.255922 3.791456 0.255922 2.208544 1.232233 1.232233 C 2.208544 0.255922 3.791456 0.255922 4.767767 1.232233"/></marker></defs></svg>
